<svg width="31" height="31" viewBox="0 0 31 31" fill="none" xmlns="http://www.w3.org/2000/svg">
<path d="M11.7555 30.6564V20.311H8.55987V15.557H11.7555V13.5087C11.7555 8.21282 14.1425 5.7587 19.322 5.7587C19.84 5.7587 20.5556 5.81315 21.2182 5.89223C21.7144 5.94467 22.2066 6.02911 22.692 6.14503V10.4556C22.4115 10.4298 22.1302 10.4143 21.8485 10.409C21.533 10.4008 21.2174 10.3969 20.9017 10.3973C19.9885 10.3973 19.2755 10.5217 18.7382 10.7979C18.3775 10.9806 18.074 11.2596 17.8612 11.6043C17.5279 12.1488 17.3781 12.8942 17.3781 13.8756V15.557H22.4401L21.9415 18.2834L21.5708 20.311H17.3781V31C25.0532 30.0692 31 23.5106 31 15.557C31 6.96567 24.0599 0 15.5 0C6.94012 0 0 6.96567 0 15.557C0 22.8533 5.00392 28.975 11.7555 30.6564Z" fill="white"/>
</svg>
